/* XPM */
static char *fcfca768faef4e1b906bcf1c0bc5a35aMnTkinSIUsjstxJE[] = {
/* columns rows colors chars-per-pixel */
"64 64 256 2 ",
"   c #1E0014",
".  c #18011C",
"X  c #170011",
"o  c #230014",
"O  c #24011B",
"+  c #2C001C",
"@  c #2B0317",
"#  c #33001E",
"$  c #360019",
"%  c #2B0512",
"&  c #0C0127",
"*  c #180327",
"=  c #0A0038",
"-  c #180237",
";  c #2D0123",
":  c #270327",
">  c #330023",
",  c #3B0123",
"<  c #33022A",
"1  c #3B022C",
"2  c #370A2B",
"3  c #39132A",
"4  c #280439",
"5  c #390537",
"6  c #331235",
"7  c #43012B",
"8  c #4A002D",
"9  c #430628",
"0  c #430233",
"q  c #4B0133",
"w  c #430B34",
"e  c #490739",
"r  c #530134",
"t  c #54013B",
"y  c #5B043C",
"u  c #57093A",
"i  c #47153A",
"p  c #55143C",
"a  c #4C062E",
"s  c #62023E",
"d  c #43001F",
"f  c #070049",
"g  c #190148",
"h  c #030054",
"j  c #02005C",
"k  c #0B0159",
"l  c #180257",
"z  c #1F115E",
"x  c #260447",
"c  c #380947",
"v  c #39144A",
"b  c #270858",
"n  c #360A54",
"m  c #371658",
"M  c #2A1359",
"N  c #020064",
"B  c #0B0264",
"V  c #04006C",
"C  c #0C016A",
"Z  c #0F0969",
"A  c #150468",
"S  c #0B017C",
"D  c #0A0376",
"F  c #140274",
"G  c #170778",
"H  c #1C1377",
"J  c #1F1760",
"K  c #260A67",
"L  c #2A1669",
"P  c #250A78",
"I  c #291677",
"U  c #331777",
"Y  c #36106A",
"T  c #3C2268",
"R  c #37247D",
"E  c #4A0846",
"W  c #5B0244",
"Q  c #580746",
"!  c #471549",
"~  c #571746",
"^  c #471655",
"/  c #521254",
"(  c #630143",
")  c #6C014A",
"_  c #650748",
"`  c #73014B",
"'  c #77034A",
"]  c #65164A",
"[  c #6A0755",
"{  c #780656",
"}  c #681854",
"|  c #761859",
" . c #532550",
".. c #672755",
"X. c #742459",
"o. c #6A2C53",
"O. c #49166A",
"+. c #731764",
"@. c #482868",
"#. c #4F2C73",
"$. c #7B2A65",
"%. c #773768",
"&. c #6D3170",
"*. c #754975",
"=. c #860559",
"-. c #86155C",
";. c #861766",
":. c #91116D",
">. c #86356B",
",. c #9A2876",
"<. c #873975",
"1. c #97387A",
"2. c #882970",
"3. c #A72D7A",
"4. c #A41978",
"5. c #96447C",
"6. c #874877",
"7. c #96517E",
"8. c #090388",
"9. c #180588",
"0. c #1A148A",
"q. c #0B039C",
"w. c #080296",
"e. c #170697",
"r. c #1C1499",
"t. c #240B87",
"y. c #281688",
"u. c #341986",
"i. c #250998",
"p. c #281597",
"a. c #351A99",
"s. c #390C88",
"d. c #392688",
"f. c #382898",
"g. c #312B93",
"h. c #0C02A4",
"j. c #0A03A8",
"k. c #1508A8",
"l. c #1D13A7",
"z. c #1808B7",
"x. c #1B13B4",
"c. c #0B03BA",
"v. c #2709A7",
"b. c #2816A7",
"n. c #2807B8",
"m. c #2618B7",
"M. c #3317B8",
"N. c #3513AA",
"B. c #3826A8",
"V. c #3929B6",
"C. c #322BAF",
"Z. c #432C99",
"A. c #4D338F",
"S. c #673187",
"D. c #451AAB",
"F. c #4735A7",
"G. c #4835B6",
"H. c #4B32B1",
"J. c #461983",
"K. c #5C488F",
"L. c #6D5092",
"P. c #5847B0",
"I. c #6B55B1",
"U. c #736CAE",
"Y. c #190CC8",
"T. c #1911C9",
"R. c #2A08C5",
"E. c #2619C7",
"W. c #3818C5",
"Q. c #2717D7",
"!. c #3A17D6",
"~. c #2F0DD0",
"^. c #3C36D7",
"/. c #342BCC",
"(. c #372AE6",
"). c #2E18E1",
"_. c #4828D3",
"`. c #453AD7",
"'. c #4E33CC",
"]. c #4F36E4",
"[. c #421FDB",
"{. c #5649CF",
"}. c #6B54CE",
"|. c #7267D0",
" X c #524BE6",
".X c #6951ED",
"XX c #6868E7",
"oX c #756BFE",
"OX c #7B75FF",
"+X c #736CEC",
"@X c #973586",
"#X c #B4358C",
"$X c #B22D91",
"%X c #C4389A",
"&X c #CE3DA2",
"*X c #9B4686",
"=X c #93568E",
"-X c #B84698",
";X c #B6579B",
":X c #AA4A8F",
">X c #956497",
",X c #B2659C",
"<X c #905AA3",
"1X c #B353A7",
"2X c #9170AE",
"3X c #B26CAC",
"4X c #C54B97",
"5X c #CA48A6",
"6X c #CA59A7",
"7X c #D553AF",
"8X c #E759BA",
"9X c #D866B8",
"0X c #CF6EB2",
"qX c #E66ABB",
"wX c #8571D4",
"eX c #847DFF",
"rX c #8476FB",
"tX c #8974E6",
"yX c #A873C2",
"uX c #DD69C2",
"iX c #FC7BDB",
"pX c #EC72C9",
"aX c #FE7BE3",
"sX c #E55AC1",
"dX c #7C89D7",
"fX c #B387B8",
"gX c #8B83FF",
"hX c #8C87FF",
"jX c #948AFE",
"kX c #9B95FF",
"lX c #9C87E2",
"zX c #A49CFF",
"xX c #B599EF",
"cX c #ACA5FF",
"vX c #B3ACFF",
"bX c #BAA7FF",
"nX c #BAB4FF",
"mX c #B6A1EB",
"MX c #A88AD2",
"NX c #CB88C6",
"BX c #F487D7",
"VX c #FE86E6",
"CX c #FE97F7",
"ZX c #FB8EEF",
"AX c #C3ACFF",
"SX c #C6B5FF",
"DX c #DAB8FC",
"FX c #FEA7FE",
"GX c #FFB9FF",
"HX c #E8BDFF",
"JX c #CF93E5",
"KX c #C7C9FF",
"LX c #D5D8FF",
"PX c #D2CEFF",
"IX c #F4C7FF",
"UX c #CFA6DE",
/* pixels */
"=X=X6.%.%.&.2.:X<.5.1.>.>.5.,X,X=X7.*.*.*.L.<X2X2XMXlX|.wXxXtXu.G.].'.G.'..X}.'.'.}.}.'.H.H.}.}.P t.y.t.y.P I I I I U L L l g #.",
"@ @ @ # 0 0 E [ 7 t 7 7 7 8 W q + > 3 O O 3 4 x g l L l K }.'.9.9.9.9.9.i.9.9.i.8.9.e.e.9.t.p.H.F 9.t.t.t.t.y.u.I u.u.I I M = M ",
"; ; 1 e W W W { ( ` W W Q Q Q q t u Q Q ! E ^ n O.Y U t.P D._.D.W.n.n.W.W.n.n.M.n.n.W.!.M.v._..Xp.p.i.i.i.p.N.a.t.p.a.I U I J M ",
"2 : e t W ) ' :.{ { _ _ [ [ [ _ Q _ ] [ / ^ O.Y s.s.s.D.N.D._.n.~.~.!.!.!.!.!.!.~.~.!.[.~.n.M.'.M.N.M.m.b.v.p.b.b.B.a.p.g.I J J ",
"i e Q W ` { { 4.=.{ [ [ [ [ { [ [ +.+.O.O.O.J.O.s.a.N.N.N._.].v.~.~.R.R.!.!.!.~.~.~.!.[.!.~.!.].m.m.M.M.m.m.b.b.B.C.B.C.g.I Z l ",
"1 < < W :.$X4.4.:.$X:.:.:.+.@X@X;.S.S.S.S.S.A.A.A.H.H.F.H.{. XV.'.W.W._._._._._._.[.[._._._.'..XM.G.'.V./.G.V.G.V.V.G.G.y.h h I ",
"1 E t @XiXVXiXVXaXVXiXaXVXVXaXJXJXJXJXJXJXxXxXxXAXvXvXvXvXnXKXSXbXbXbXAXAXbXbXbXAXAXbXbXxXDXAXAXbXbXbXvXbXvXnXbXvXvXnXnXdXg.g.I.",
"=X0X-XiXGXGXFXGXFXFXVXZXCXFXGXFXIXGXHXDXDXHXPXIXPXIXPXnXcXnXvXcXbXSXDXDXSXAXDXAXxXAXAXxXbXSXAXjXkXzXvXSXSXnXvXvXnXcXvXLXzXg.J H ",
"$.+.#XCXaX@X@X2.+.| ,.7X-X@X=X=X>X<X>XO.&.S.S.A.S.H.}.D.i.N.W.M.v.].rXN.W.v.n.M.n.W.]._.n.M.M.M.m.z.]._.m.m.m.b.b.l.C.eXOX0.D D ",
"1 , { pX&X) W t t 8 ) -.8 d 1 < 1 5 &.5 5 x b b P s.D.D.v.k.n.n.k.[..Xk.R.n.n.n.R.z.[.n.h.n.n.z.R.j.E.E.k.n.k.h.k.k.k.OXgX8.0.0.",
"w 7 =.iXsX=.( r q 9 | -.d q 3 ; 2 w ..e 5 ^ O.O.O.s.D.D.i.v.v.n.v._.].z.R.R.R.n.n.k.!.M.k.R.n.z.v.q.V.V.e.k.h.m.w.k.w.eXkXw.8.0.",
"3 # ` qX8X=.( r u # X.X.7 p 3 3 6 i o.w ^ / m m O.J.H.s.t.i.i.v.v.W._.n.W.n.n.M.W.M._.M.v.M.v.N.e.e.B.b.e.b.r.m.x.k.k.oXdX0.8.0.",
"< > [ uXuX{ ) Q w > %.%.> 1 : 3 3 w  .2 6 v v T Y L u.P C G i.a.i.i.M.v.v.i.v.v.e.i.D.N.9.9.S 9.8.9.B.e.8.e.8.k.x.j.T.dXdXl.8.8.",
", q ;.uX5X_ q 0 # > >.S.1 +   O O + o. .< * - - f = K I A B N F S t.t.9.9.8.9.F G 9.G.P.f.a.a.a.D.{.tX{.C.C.b.m././. XcXvX`.C.r.",
"3.#X7XCXaX$X@X,.:X;XpXBX7X3X;X*X$.<.NXNX3X=X*.#.S.A.U.tXwX}.H.P.rXtX}.}.}.}..X{.H.H.|.tX}.}.tX|.}.|.tX}.}.}.C.C.{.{. XcXvX^.C.`.",
"3.#X#XaXaX$X-X:X+.| $.@X@X0X0X5.%.] .... .@.@.@.T T J.A.Z.H.P.|.tX{.D.H.'.H.G.D.p.s.F A k B d.f.B k B h C G V 8.r.w.q.oXdXr.w.C.",
"d d s 4X8X) _ Q O O . .   @ ~ $ % X       X & & & = = J Z Z B.S 9.8.9.i.9.v.v.e.i.e.t.9.G F y.d.k B C G D V 0.D w.l.h.OXhXh.w.m.",
"i a s 7XpX=._ i   3 3 . O O  .i X % @ ; 3 . . * & & = f k Z f.0.i.9.v.v.v.v.i.v.b.v.i.9.9.t.f.Z.h Z F H G V F D w.k.j.oXgXh.w.x.",
"9 a s 4XpX' r q + @ o o 2 @ p 9 % : 3 2 3 * . * - & - g g J d.a.i.i.i.i.v.v.i.9.9.i.t.9.t.y.f.f.j G H G Z B Z D r.k.j.OXhXl.w.C.",
"9 a s 7XiX` r u % @ # 3 3 # 9 3 o @ + ; : . & 6 6 4 4 - g L d.P P P i.9.9.i.9.9.D F S F S S a.y.j Z C j j N V V 8.w.h.oXdXq.w.l.",
"7 8 ( &X8X) y | # @ @ % X X $ $ % X %   : : . & & * & - = f K g l h A G D F F t.P F G y.y.i.H.P.G H 0.H G H H D 8.q.j.oXOXw.w.x.",
"] W { 7XpX=.@X,X>.o.~  .p %.7.=X6.*.6.,XfXfXfXfXL.L.K.K.K.K.lXtXI.U A.|.I.H.}.tX}.}.tXtX+X}.+XtXP.I.|.|.}.|.{.{.`. X XzXkX/.^.XX",
"%.| @XiXaX$X5X6X*X*X,X,X%.*.=X7.6.>.7.,X>X>XL.*.2X2XxXMXwXI.|.wX2XP.I.}.F.a.p.F.F.f.{.P.Z.P G G H Z f.P.0.0.8.0.m.V./.hXdXx.x.^.",
"1 7 +.sXsX` W , $ $ ..$.+ # ; o X % i ! * & & & & - S.A.b k l A A I U A F t.9.9.9.C f.u.B B C G V j f.C.D N D 8.w.j.j.OXgXj.j.j.",
"1 q [ uXuX[ E t 0 1 w o.+ O ; : % o i o.* * * - - g T T l L u.P P G F.K t.p.v.N.i.G f.d.j C t.9.V H g.g.Z N D S l.j.z.jXhXh.h.x.",
"5 1 _ 9X9X[ E E e w i o.: < 2 2 O X i *.. . * 6 6 = m T l U u.t.P t.H.A P i.i.i.i.9.F.d.k B t.9.D Z I H j N D D k.j.z.jXhXk.q.x.",
"! 5 [ 0XuX+.Q / i > < i o 2 i i % X  .o.+ : - * : * T T b L I P K u.F.A A t.t.i.9.C u.d.A A t.0.H Z I H j H D S w.k.k.gXdXj.q.j.",
"e < W 5X7XW 0 1 0 # + 7 @ @ @ % X %  . .o O : * * & v v = f k k k A A.k k C A F F h Z P k j N C N N y.G h j N 8.w.q.k.OXdXq.w.q.",
"8 y 3.VXVX:.[ Q q 7 s >.} ] s u ] 6.3X:Xu Q } ^ c ^ <XwX<XP.A.L d.A.I.J.U R J.f.Z.Z.I.wXI.P.Z.F.P.B.P.F.f.P.C.C.^.`.^.cXcX/./.^.",
"X.;.#XaXaX:.-X0X>.>.6.7.<.>.>.>.o.6.6X,X;X3XyX3X<XL.=X<XL.I.lXlXK.K.U.P.P.F.P.I.|.I.}.P.f.Z.P.|.F.p.p.r.C.{.V.V.`.`.^.zXvX X`. X",
"1 7 t -X7XE 2.6.0 > > ; % @ u o.X X $ , ! .. .! / c 4 x & g A.K.= = l k k B A A G F t.9.G S F a.9.e.8.S D 8.8.q.j.c.j.oXdXj.j.x.",
"w w r 6XpXE [ 5 ; O ; + o @ a  .X % $ $ ; : : c e c c ^ n - #.T g g b A P P P I P 9.i.e.b.C.a.B.e.k.k.q.e.v.m.n.z.Y.c.oXgXx.j.x.",
"w e t 6XuXy { ] . 3 : O : O ~ ] o 2 ; > 5 2 e 5 5 < c v m x #.#.g l l Y I P P t.G i.D.N.i.0.f.C.k.n.z.z.m.E.Y.E.T.Q.c.oXeXx.k.k.",
"w 7 t 7XpXr | ] + @ 2 ; :   p p 1 ! 5 2 w 5 5 5 : 4 x v M g #.#.l b l K K K K s.Z.D.a.a.a.t.G 9.r.b.k.j.x.E.m.E.R.Q.Y.rXjXn.k.z.",
"> + q -X6Xq [ u o X %   O O u q @ ; o O ;     . . : * 4 * & #.T g b l g k K A P s.a.G F p.G V Z F C N N N D D 8.h.k.j.oXOXz.j.j.",
" ...2.9XuX;.:X-.2 p o.o. .%.<.X.o o o > 9 2 < i 6 5 : 4 v m L.S.b L Y b Y O.U Y U t.t.I y.y.y.P.K.g.g.g.0.g.g.G.C./.E.eXjXm.T.E.",
"5.*X5XCXCX5X9X:X<.5.6X0X;X;X;X1.>.>.>.1.5.<.<.=X3X=X&.O.O.#.<XL.#.L.L.K.K.I.K.F.Z.Z.P.F.I H H f.0.r.g.f.0.g.g.V.C././.zXcX{.`. X",
"0 7 =.8X8X' ` y 8 $ s X.7 , + # t q ~ Q q 0 1 0 } / / c c - x 4 M T #.g g x g g l f R d.j h h Z N V 0.C.D N S 8.q.k.z.eXeXe.w.8.",
"a d ` 8XiXs r a a % p o.@ O + 6 @ o w w + 1 1 5 * : ! c v 4 4 c 4 m @.g g x x b z f A.g.k Z Z k H D y.f.D Z D 8.h.z.Y.eXgXq.w.q.",
"i 8 ' 6XqXs r d $ % ] o.o : . . : .  .i . 2 5 < 5 < ! 4 ! v 4 ^ 6 v @.x x x g l z g d.R k Z Z Z D N Z g.h N D D q.k.x.gXeXj.l.l.",
"a 8 ' 7XqX) s 9 $ % o.>.% %   O O .  .i % 2 < 5 5 5 ! 5 5 4 4 c M v T x x x m x b l R R Z Z Z G Z Z Z H h h k V 8.w.m.kXgXw.j.j.",
"i 8 s 7XqX' r $ $ % r s % % o % + o w , @ 2 : < 5 < 5 : < 4 * : & * v 4 x M M b l f K Z h B N N N N Z H h f f N V S l.jXgXw.k.x.",
"7 8 ` 7X8X=.' y r d ] -.r ] ] a r r X.] 7 7 1 q < 5 E 4 < : c ^ v v v & g x x x g f U R I G D G 8.D 0.G.g.0.H 0.'.{.{.kXhXr.8.8.",
"<.*X5XCXCX5X7X6X0X,X0XqX0XqX9X:X*X,XBX0X:X*X*X;X:X3XNXuX3X=X3XNXfXfXfXL.&.O.@.L.I.K.I.wX}.Z.g.G.{.{.'.XXOX+X{..XoXOXOXKXnX}.{. X",
" ...2.pXiX:.@X1.u ~ ..| X.>.5.5.p p %.%.o...~ ..%.6.6.%.%.%.*.*.i  . . .m x n S.S.T Y u.I C S B.B.p.e.l.M./.Q.(.Y.R.E.OXhX/.C. X",
"2 ; q ;X0XW y _ @ @ $ @ $ d s s @ % % # < 1 1 1 0 0 < ; < > p ~ . 2 * : c c x x b g l A F G p.B.D 8.w.h.z.Y.Y.~.Q.Y.c.oXhXk.w. X",
"6 > t 9XpX{ ` ] # + > 2 p 9 ] s 8 a e 0 0 0 e E E Q Q e 0 1  ...@ 6 5 ! 5 E m n x b Y P P y.p.p.N 9.k.m.~.Q.Y.Q.).(.z.rXkXk.w.^.",
"w 0 Q 6X9X` ) ] @ > > , w # _ ] , 1 5 0 0 0 q E ~ ~ E E / e ~ e O 2 5 ! c c c n n b K K P G t.p.0.e.k.m.Q.).Q.Q.).(.Y.oXkXl.j./.",
"w 1 W 6XqXW W } O < i a a w ] p > 2 + 2 i 5 1 i ~ w ~ ~ ~ ~ w i : 6 5 5 v E ! v n n n K P G F p.8.e.k.x.T.E.(.Q.Q.Q.T.dXhXk.w./.",
"0 7 r :X7X( Q | > 1 $ d 9 9 t p # % o @ ; @ # $ > o + > 1 1 > ; 4 4 4 : : 5 c n n x b l l K t.F.D 8.8.q.q.c.Y.c.Y.Y.j.oXgXk.8.m.",
"-.| -.qXiX3.4X8X;X6X3.:X4X4X6X6X,.,.3.,.,.,.1.>.@X| ] t E [ &.<.5 5 ! @.@.&.*.#.@.O.A.A.f.Z.F.{.C.^.{. X X(.(./.Q.^.m.dXhXx.b.^.",
"p ] -.iXBX3.#X4X-X#X3.4X3.,.,.,.:.#X9X6X;.-.,.:.:X1.@X$.W Q } $.E E &.%.@. .^ n M M d.A.u.p.p.b.l.E.^..X X^.^.(.^.oXoXvXkXP.C.C.",
"$ 8 s 0X0Xs s s 9 d r 2.s a r 8 1 Q 2.$.q 1 W ( t W $.} E 0 E E e e +.&.5 5 c c Y b d.Z.G 0.9.e.k.x.x.^.c.j.T.Y.j.T.^.kXdXk.w.8.",
"2 9 p 0X0X=.s s _ s ' 4X' s ) ( Q 0 } +.W [ | ( W W [ _ E W Q Q Q Q <.&.c E ^ O.O.Y A.Z.0.r.p.l.x.x.T.(.Q.T.Q.T.T.c.x.hXdXj.8.e.",
"2 , r pXqX-.s ' s s =.3.' ' ' { -.) ;.:.( ) =.' { { ;.{ [ [ [ W [ [ @X&.E ^ ^ m Y L A.F.0.0.r.r.x.T.E.(.Q.T.T.T.Q.T.T.kXhXr.w.r.",
", @ $ 0XqX-.=.=.=.:.=.%X=.:.=.=.=.{ 4.4.:.=.:.:.:.:.4.;.{ { [ +.[ +.*XS.E @.@.T @.L A.P.H r.g.r.m.V.m./.E.E.Q./.E.x.^.kXdXw.8.8.",
"w d 2.BXBX7X5X#X5X%X7X7X5X5X5X7X5X%X5X8X&X%X5X5X5X6X7X-X:X1X1X:X1X1X3XyX<XL.U.U.U.U.dXdXdX|.XX|.+XXXXX+XdXXXXXXXXXdX+XnXdXV V V ",
"=X7.5.9XCXFXFXGXFXZXFXFXFXCXaXZXFXZXZXZXaXiXZXVXVXCXFXGXGXGXGXFXJXFXGXIXGXDXPXLXLXKXKXKXKXKXKXKXKXvXnXPXLXKXKXLXKXKXKXLXkXC.F.g.",
"] ] 9 s 3.-X5X8X5X#X%X5X&X%X&X7XCXBXZXBXpXiXVXiX9X9XuXpXpXBXBXBX@X@X<X<X<X=X=XL.U.L.K.I.P.dX{.dXXX{.{.dXOXXXXXOXdXdXdXoX{.C.C.C.",
"# $ 9 r s s ( { ` r s ' ) [ :.$X-.-.;.-.| ;.-.-.-.{ ) ) W [ 2.1.E E [ E e / ! v @.m J I J H H g.g.0.r.l.l.k.q.h.c.c.Y.j.w.w.0.0.",
"9 % 9 p 8 7 y ] q 1 q 8 5 q W 2.8 8 r r r s r a W r 8 8 8 8 } X.8 ] _ r y ] } } } ^ n O.T K A f.g.0.r.e.w.k.q.j.k.z.j.w.w.0.G H ",
"3 % 3 9 q r ~ X.w 7 1 1 0 e e ~ u u s u y p s r t r 8 r r 8 ..X.8 p p s u ] ] ] $.! n O.#.U A f.B.D 0.q.q.k.w.k.k.k.h.e.r.0.Z H ",
"% % 3 d w p q ~ e w w , w Q q ] ] s s s s s p s r s r t 8 8 } X.y ] ..p p p p p ..^ v @.O.U K d.F.S 0.r.r.r.e.l.l.l.0.8.G Z h h ",
"3 % i 9 0 9 0 p w i i 2 5 e 0 } ] s u s ] ] s u _ } } ] u r X.>.q p ~ e 7 9 5 i ! 6 v m M L J A.f.9.p.b.r.b.r.r.r.g.r.0.0.H L J "
};
