/* XPM */
static char *_946fea9dfd8478595fda31aef639588hAFEgnZXTt32aA8K[] = {
/* columns rows colors chars-per-pixel */
"64 64 248 2 ",
"   c #0E001B",
".  c #0C0017",
"X  c #13011D",
"o  c #19001D",
"O  c #3D0415",
"+  c #0E0023",
"@  c #0D002B",
"#  c #140124",
"$  c #190125",
"%  c #1D0C26",
"&  c #16012B",
"*  c #19012D",
"=  c #1C012E",
"-  c #19012B",
";  c #1C0C2A",
":  c #170F28",
">  c #060438",
",  c #150232",
"<  c #1A0131",
"1  c #1B0133",
"2  c #1D0934",
"3  c #14003B",
"4  c #1D013B",
"5  c #1E093B",
"6  c #171D3F",
"7  c #220926",
"8  c #20072E",
"9  c #200D2B",
"0  c #210E2A",
"q  c #2A0427",
"w  c #24112E",
"e  c #220435",
"r  c #220A35",
"t  c #22023C",
"y  c #27053C",
"u  c #291636",
"i  c #35022D",
"p  c #30362C",
"a  c #4C0F0D",
"s  c #4F2D31",
"d  c #5B132D",
"f  c #1D0043",
"g  c #1B014C",
"h  c #160447",
"j  c #190557",
"k  c #140E53",
"l  c #230243",
"z  c #2A0145",
"x  c #25014B",
"c  c #2B014C",
"v  c #2C0A4C",
"b  c #250B46",
"n  c #350649",
"m  c #250153",
"M  c #2C0253",
"N  c #2C015B",
"B  c #290857",
"V  c #330254",
"C  c #330955",
"Z  c #33005B",
"A  c #3B055A",
"S  c #380A5B",
"D  c #37125B",
"F  c #2C1148",
"G  c #170C63",
"H  c #1C1371",
"J  c #2C0563",
"K  c #330163",
"L  c #3C0264",
"P  c #3B0A63",
"I  c #3C016C",
"U  c #39086C",
"Y  c #281569",
"T  c #39116A",
"R  c #2B0875",
"E  c #3A0774",
"W  c #251474",
"Q  c #351876",
"!  c #322F7A",
"~  c #1C266E",
"^  c #43024B",
"/  c #4A0055",
"(  c #4E104F",
")  c #723F46",
"_  c #43016B",
"`  c #450968",
"'  c #5A056B",
"]  c #49166D",
"[  c #440272",
"{  c #43017B",
"}  c #4C017D",
"|  c #480A75",
" . c #57037A",
".. c #541878",
"X. c #4B2768",
"o. c #552578",
"O. c #533171",
"+. c #62397F",
"@. c #77186C",
"#. c #22517B",
"$. c #39567E",
"%. c #996938",
"&. c #B3676B",
"*. c #B29B35",
"=. c #86905B",
"-. c #D7AF5D",
";. c #371581",
":. c #353386",
">. c #4A0384",
",. c #550986",
"<. c #5B1885",
"1. c #4D138D",
"2. c #651587",
"3. c #68158C",
"4. c #55318D",
"5. c #65228A",
"6. c #652488",
"7. c #68388A",
"8. c #77388B",
"9. c #762A9B",
"0. c #753797",
"q. c #683093",
"w. c #5D3AA0",
"e. c #7B2AA6",
"r. c #7834A4",
"t. c #6939A4",
"y. c #334F89",
"u. c #3E74A0",
"i. c #4B5394",
"p. c #6E449B",
"a. c #75449A",
"s. c #7D5999",
"d. c #614180",
"f. c #5D48A5",
"g. c #7852A9",
"h. c #6E4AA8",
"j. c #506BAD",
"k. c #696FB7",
"l. c #696FC4",
"z. c #822DA1",
"x. c #8D37AA",
"c. c #9B2F92",
"v. c #83619E",
"b. c #8545A9",
"n. c #8758AE",
"m. c #965DAB",
"M. c #8A48B5",
"N. c #964ABB",
"B. c #8958BA",
"V. c #995AB6",
"C. c #B847A3",
"Z. c #9969B9",
"A. c #926CBA",
"S. c #A061A8",
"D. c #CA6E96",
"F. c #E97BBA",
"G. c #8D5CC3",
"H. c #9A56C6",
"J. c #954CC2",
"K. c #AD5CD4",
"L. c #B059CE",
"P. c #9964C7",
"I. c #9578D1",
"U. c #A76AC8",
"Y. c #A675CA",
"T. c #A96BDB",
"R. c #AA75D8",
"E. c #B679DB",
"W. c #B66ACF",
"Q. c #AA76E2",
"!. c #B573E4",
"~. c #B979E8",
"^. c #B976E9",
"/. c #EB7CC5",
"(. c #C577EA",
"). c #DC72CC",
"_. c #368393",
"`. c #5BAABB",
"'. c #62ABBA",
"]. c #448C9A",
"[. c #6E93C7",
"{. c #6EB5CD",
"}. c #72AFD3",
"|. c #7EADE5",
" X c #78C4DB",
".X c #78C7E4",
"XX c #A7B4AB",
"oX c #F4BBA4",
"OX c #DCD682",
"+X c #F8D192",
"@X c #FFEB97",
"#X c #F8D5A8",
"$X c #B886D9",
"%X c #BA95DC",
"&X c #82BDDB",
"*X c #BB8DE1",
"=X c #B985F3",
"-X c #8EB2F4",
";X c #91AFF4",
":X c #ACBCFF",
">X c #8691DD",
",X c #C282D8",
"<X c #C689EA",
"1X c #C793E8",
"2X c #CC8BFC",
"3X c #C388F6",
"4X c #D68BFC",
"5X c #CA96F7",
"6X c #DE94FF",
"7X c #D599F9",
"8X c #D394EF",
"9X c #E48AFE",
"0X c #E49CFF",
"qX c #E797FF",
"wX c #F99AFF",
"eX c #F18BEA",
"rX c #DEACFF",
"tX c #DAA5FC",
"yX c #DCB5FF",
"uX c #CFA0E8",
"iX c #E3ABFF",
"pX c #E9A6FE",
"aX c #F5A6FF",
"sX c #E6B2FF",
"dX c #EAB3FF",
"fX c #E8B8FF",
"gX c #FCBCFF",
"hX c #FAB2FF",
"jX c #A3CBC3",
"kX c #8AC8EC",
"lX c #99D6FC",
"zX c #8DCCF1",
"xX c #ABC2FF",
"cX c #B6C7FF",
"vX c #ABD9FF",
"bX c #B6D9FF",
"nX c #A9D5EE",
"mX c #AFF6FF",
"MX c #BBF8FF",
"NX c #AAE3FE",
"BX c #98CAD5",
"VX c #C7D8FF",
"CX c #D7DBFF",
"ZX c #FACAFF",
"AX c #FAD7FF",
"SX c #C5E9FF",
"DX c #C7FEFF",
"FX c #D5FCFF",
/* pixels */
"u w 9 r w w 0 w % % 0 % 0 % % % : : : : : : : : : : % : % % % % % % % % % % 0 % % % 0 : 0 % : : % % % % 7 % % 0 w % ; w ; ; 9 u ",
"; X .     . .   o o X X X o % X : +   + : X X # X X : o o o X X o o o o X o o X                 % X X o X X o X X .     X X # ; ",
"0 # X # $ o X %   X     X . . . +     + .     X X X . X X . X X X X X X X X X X + X # + + # + # X . X X X X X X o # X % # X $ w ",
"9 % X o $ X X # X X X o X o X X # # # # # # # # # # o o $ $ o $ o % X # # # # % # + + + + + +   X X X X X X X X o X   o X X # % ",
"% X . X X     X X # X # o X % X # & $ $ - $ - $ $ $ $ $ = $ 7 $ $ - $ - # - # - # & + # # @ + # o X X # X # # X # X   X X X o ; ",
"9 # X $ $ X X $ X X X X X X X X # & # & $ $ # $ - $ $ $ $ $ $ = - - - & & & & & & = & & & & : & % X # X X X X X $ X # % $ X # w ",
"% X X X X X   X X # X X # X # + # # & # # # - & $ - $ $ = $ $ $ * - * - * & & & + + + @ + + + + + X # X X X X X X . .   . .   % ",
"9 # X X o X X # # # # # # # # # ; $ & = $ - ; $ $ = = = 8 = = = = < = < < = < * < & & & : & & & # # # # # # # # # o % # # o o 0 ",
"% o X X # X X # X # + # # # # & # + & # : & & $ # # * r < # - * & < e < & * < + * - - & # # & # # & # # # + #   # X X # X   X % ",
"% X X X X X X #   # # # # & & # # + # # # : & & 2 2 = & * < < * < e < * < * = < = * $ $ & ; # & & # & & # # # # # #   o o   X 0 ",
"7 o X X # X   # # # + & + & & & # : & # & : & ; # & * & < 5 5 e & < e < 1 < < r = = = & & # & # & # # + & # + # # X X # X X o % ",
"% X X X X X # # # # & # & & & & & # & & & , , , 1 5 4 1 b 4 @ 4 & , t t 1 e 2 e < < & ; = $ # & & & & & & # # # # X X X X X X 0 ",
"% X X X X X # # & # # & & & & , , & , < 1 1 1 4 4 3 , 3 b 3 , O.d.t 1 l 1 t t 1 2 < < < * * & = & & & & & # # # # X X : X . o 0 ",
"% o X X # X X # # # & & & , & < < 1 1 4 4 4 4 4 4 4 x 4 3 3 x A.%Xv , l 4 4 4 4 4 1 e 1 < < < & , , * , & & & # # X X o X X o % ",
"% % . o X X # # & # & & & < , < 1 4 4 4 4 4 f f f f v x C x B Y.$Xv 3 x f f 4 t t 4 4 1 1 1 < < , < , & & & # & & X X X o X X 0 ",
"% X . X # X # # # & & * , , < 1 1 t t 4 f f l l M f x ..Y.1XR.sXp.x m M f x f l l 4 4 1 1 1 , < , , & , & & & # # # X X X . X % ",
": X . X : X X % = - - = < e * * y y t z b l l M V 4 ` pXE.N.N.3.Z K I K | m l l 4 4 l 4 4 5 5 & , , , , , * * - $ & X X #   . % ",
"% . . X X X # $ - - * < 1 1 < * y e t t z c c c M c ..5XL. . . .e.9.e.,.I P c z 3 f b 4 , & * - ; , : @ , & * - - $ #   # X   0 ",
"% . . o X # # - - * , 1 1 1 1 < < t l l l l x c B g N P.6X0X0X4X4XqX0X4Xr.K m l c b x l l y e = 3 : 3 , & , * - - $ # # #     % ",
"% o . o $ X # - * * < 1 4 4 4 3 l l l z C S C m N T N N U 5.5.<.3.2.3.qX!.| K C l x b x t y e e , , , , < * * - $ - # X #   . % ",
"7 o X o $ o # - - & < 1 1 3 4 f 3 g c c l x M Z m K T K K I Z V z.L.(.aXH.I Z m x f 3 , 4 4 e e , 5 , , < , & * - $ # # : X   : ",
"7 o . o $ $ $ - & , < , 4 3 f l B x 4 z V / ` ` ` M K E K m N M.wX4X(.N.>.I N N m M C B l 4 t n 5 3 4 , < , * - - - # # $     0 ",
"7 o X X $ # # - & < 1 1 1 4 l c x l A a.$X1X1X<X(.r._ K K U I R.~.I _ [ K I q.E.1X8XtX$Xg.] f 3 h 4 4 , , & * * $ - # # #     : ",
"7 . X $ $ $ # - & < , 1 4 f x V c 0.1XdX$Xg.p.B.<XpXqXH.| [ m T.^.I K I t.3XpX8XV.8.8.Y.sXtXh.g g f f 4 1 , & & & - # & $ + X : ",
"% X X % - - $ - & & 1 4 & D / V 9.gXE.` B h h g K <.T.wXpX(.!.6X6XT.3X2XrX$X5.Z ^ ' / / n U.ZXg.h , f 4 , & & & * - - - # + # : ",
"% X   # $ & & - & & 2 1 l P P 0.hXW.] g k i.k.i.Y N [ <.x.K.!.3X^.3XT.B.E | m / c.eX/.@.i V 4.AXt.f 4 f , , , ; * & - - $ # # : ",
": + + # - - & < & < 4 < c ^ ` (.9X2.m k y.MXFXbXy.W E I  .,.>.I } ,.E I m | V 2.wXc./.F.( i y A.1XT 3 b , 5 , , * - - = & # # : ",
": X + # - - & & & < < 1 c V 6.qXz._ Y > #.lXkXNX#.~ Q I ,.} [ >.} I { E L A ' ' eXC.F.D.d d o ^ rXp.f 4 3 2 ; & * - * - # # # : ",
"% X # # * * & < ; , & 4 x M M.0X<.K k.[.zXmX{.MX-X-Xl.Q >.>.>.1.>.>.,.,.[ M.4XW.x.eXD.&.oXoX) q $XR.l 3 5 , & & * * = = * # + : ",
": X # & = * * * 2 , & 4 f M H.2XE j :XDX{.'._. X XMXxXW >.3.,.>.,.,.>.E 5.0XN.(.U.^ s oX-.+X#Xa S.2Xx 3 b & , # < * = = - # # : ",
"% o X $ = = * * ; ; , 3 l M H.2Xj G vXMX{.'.]. X.XmX:X;.>.,.,.>.{ E E { e.pXr.2XR.& s #X*.-.+Xa S.<Xc f 3 , & & < * * < & # # : ",
"% % # $ = = - * , , , 3 l M N.2XE j u.[.zXNX{.MXlX|.k.H ;.R R ;.R E R >.K M.pXI.f.VXXX=.OX@X%.a W.R.x l 3 2 , , < * * * & # # : ",
"; # # # - - = < & & 2 3 t c r.4XE j G > #.NXlXNX:.H W W l.;X-Xj.y.|.;X[.Q J Q Q SX[.BXjXp s s i E.W.z t 3 , , , * - - - $ # o 7 ",
"9 #   # $ - * = < & ; 1 l z 0.6X| N B k y.bXSXbX:.R ;.W VXDXDXkX}.DXMXMX! J j :.SXu.&XnX6   y n <XZ.t 4 , 5 3 , < - # $ $ X $ q ",
"; $ X # - - = < 2 & ; 1 t t 2.qX..V m B k i.j.4.w.~.~.w.I.:XcX[.l.xXxX>Xf.Q.Q.w.l.vXMX$.> 6 @ z <Xn.t t 1 f 3 1 < $ $ # $ X 7 q ",
"; # X # - # * = < & = < l 4 ..qX5.V Z D k k G Q tXQ.3X7Xf.R Y G G :.G 4.2X2X^.sXf.! ! > b b , C 7Xb.t < , 5 4 4 < - # - # # o 7 ",
"8 # # # $ & * < * & , & l 4 ` 6X0.V A Z S N Q 5XT.U K H.dXG.G.R.Q.P.g.yX!. .A J.rXj h k 4 l v x 7X7.4 < 1 4 3 1 * - & $ & # o 7 ",
"8 # X # $ - * < & & 2 & l t V 8Xb.z V z V m L 6XH.I m H.pX2X<X^.~.T.3XhX^. . .9.pXQ h > l 4 4 X.8X..t * 1 5 4 1 < - # # # # $ 7 ",
"; # X # # & * < & & 2 & t t z <Xn.c c M P V _ N.pXM.M.gXM.A _ _ { } K 9.gXL.x.wXE.Z f v z z c O.7X` 2 < < 2 , < = $ # & # # $ 7 ",
"r #   # - # & * & & r @ t l z $XP.M x M M c A K T.ZX0Xh...V _ _ I I Z  .N.wXhX9X_ l M z y t t 7.8XC 1 < < , , < = - # & # # # 7 ",
"; #   # # # & < < * 2 & e t l Y.U.m x D x S m Z Q.~.E J I I I _ I E I [ [ 3.L.9XL f m l x l f p.1XV t r , 1 & e = $ - # # # # ; ",
"8 #     # # & < e 1 2 & 4 4 t Z.R.P h f h C N I 3XG.J J K N Z K K K N K L L 9.6X5.x c 3 4 x f n.*Xl & r = 1 < < = - # # & + # ; ",
"8 # X X # # & = < < 5 & < , 4 n.1XM f g v m h q.tX4.g N Z x N J T N N M P m ` 7Xn.x 4 v h > x Z.$X4 # 2 & , < & 8 $ $ & & + # : ",
"8 #   X # # - < & * , & , < 4 s.<XA 3 3 f x V P.5XU g B M c C N B x M x C f g Y.1Xx b 3 @ 3 x Y.Y.l & 2 + & < + 8 $ # # # + # ; ",
"r #     X # & * * < < & & , & +.7XM x x M x f 7XP.m m x z v M C x f v l v l 4 7.sXz t 1 b l < $XZ.l & = + + < # 8 - # @ @ + : : ",
"8 #   X # + & < 1 1 1 , , & & ] dX7.x 3 4 4 6.gX<.x v f t z c V b 4 v t l v f C tXm.= # l , ] dX7.4 < $ # & 2 * 8 $ # : # + @ : ",
"8 #     # # $ < 1 e , 2 & , @ l U.fX7.x l o.iXE.M x l t t t z V f 4 f 4 4 f g 4 m.dX8.y l ..8X8XA 4 < # & & < = = $ # # @ + + : ",
"7 #   X + # # = * < & 2 & 5 & e y Y.yX%X%XfXE.P l x 4 F y 1 z c x v f l x f v x t Z.sXuX$XiX8X` 4 , 2 # $ - - $ = $ # + : + # ; ",
"9 X X X   X & # & & & & & , < 1 , 4 X.s.s.X.l 1 l l 4 t 4 t l l l f f t l 4 f t 4 t X.s.v.O.z 1 4 1 < & & & & & # # X   #   X % ",
"0 X X o X X # # # # & & & , , < 1 & & 1 5 , , t 4 4 4 4 t 4 4 l 4 t 4 4 4 t 4 e 1 & @ < 1 & & < & , , & & & # # # # X X # X X 0 ",
"0 . X X   X # # & & & & & , & < < < < < 1 1 4 t 1 t t 4 t 4 t 4 4 t 4 t 4 4 4 4 t 1 < 1 1 1 1 1 * , < & & & & # # # X X o . X % ",
"0 X X o X X # # # # # & & & & < & & < < < 1 1 & t 4 4 4 4 4 4 4 4 4 4 4 t 4 t t < 1 t 4 1 1 < & < & , & & # # # # # X X o X . 0 ",
"0 . . o X X # # # # @ # & & & & e < < * 1 1 e e 1 1 1 4 4 4 4 4 4 4 1 4 4 1 4 1 1 1 1 < & & * e & & & # & # # + # # X X % X X % ",
"0 X X o X X # X # # # & & & & & - & < e e 1 1 < 1 1 1 1 1 1 4 1 4 1 4 1 1 e < 1 & < 1 e e * & * & & & & # # # # X o X X o X . 0 ",
"0 . o X X X % # + # # # # & # & * & & - * & * < 1 < < e 1 1 1 e 1 1 1 1 < < < < < = < 2 < * * 2 & # & # & # # # # # X X o X X 0 ",
"0 X X o X X # X #   # # # # # & # $ # - - * * * < < < < < < 1 < 1 < < < < < < = - & & # - # # & # & # # # + + X X # X X X X X 0 ",
"% X   X X     X # # # # # # # & $ - - $ & - & & - - * < & < * * 1 < < * < * * - - $ = $ = & $ $ # # # # # # # # # X X # X X o % ",
"; o X X # X X o X X # X X X   # # # # # # # # # # & & & & & & & & & & & & & & # & # & # # # $ # # X + #   # X X % X X # $ X # 9 ",
"% X     X X   X X X X X X X # X X X # X # # # # # & & # & & & & & & & # & # # & & # # # # # # # X X X X X X X X       X X X o : ",
"$ X . X X     X # X # X X # X # # X # X # # # # $ & $ - # & & & * & # - & $ & $ # # ; # $ # % # X # X # o # o o X X X X X X X % ",
"9 $ X # % X X # X o X X X X X X X X X X X # # # # # # # # ; # # # # & # # # # # # # # o X o o X X X X X X X X X % o # $ # X $ w ",
"% X   X X .   X . . X X X X . X X X X X X X     X X # # + # + # # + # + # # X X X   X X X X . . X X X X X   . X X X X X X   X % ",
"% #   X X X . . o o o X X o o X X X X X X X # X # # # # # + # & # # # # # # # # % X X : X X X : o X X X o o $ X X   X # # X # % ",
"u 9 % % 0 0 % w % w % % 0 % % 7 % % : % % : ; : ; ; ; ; 2 ; ; ; ; 2 2 ; ; ; ; ; % % : % % 0 % % 0 0 o 0 % % 0 % 9 % ; 9 9 9 w u "
};
